<?xml version="1.0" standalone="no"?><svg xmlns="http://www.w3.org/2000/svg" viewBox="0 0 1440 320"><path fill="#acddde" fill-opacity="1" d="M0,192L21.8,192C43.6,192,87,192,131,170.7C174.5,149,218,107,262,117.3C305.5,128,349,192,393,218.7C436.4,245,480,235,524,224C567.3,213,611,203,655,176C698.2,149,742,107,785,101.3C829.1,96,873,128,916,165.3C960,203,1004,245,1047,229.3C1090.9,213,1135,139,1178,117.3C1221.8,96,1265,128,1309,144C1352.7,160,1396,160,1418,160L1440,160L1440,0L1418.2,0C1396.4,0,1353,0,1309,0C1265.5,0,1222,0,1178,0C1134.5,0,1091,0,1047,0C1003.6,0,960,0,916,0C872.7,0,829,0,785,0C741.8,0,698,0,655,0C610.9,0,567,0,524,0C480,0,436,0,393,0C349.1,0,305,0,262,0C218.2,0,175,0,131,0C87.3,0,44,0,22,0L0,0Z"></path></svg>